<svg xmlns="http://www.w3.org/2000/svg" xmlns:xlink="http://www.w3.org/1999/xlink" width="100" height="101" viewBox="0 0 100 101">
  <defs>
    <clipPath id="clip-cleric">
      <rect width="100" height="101"/>
    </clipPath>
  </defs>
  <g id="cleric" clip-path="url(#clip-cleric)">
    <g id="Groupe_2" data-name="Groupe 2">
      <path id="Tracé_6" data-name="Tracé 6" d="M13.226,28.452a3.226,3.226,0,1,1,6.452,0v3.226H22.9V28.452a6.452,6.452,0,1,0-12.9,0v3.226h3.226Z" transform="translate(6.129 13.484)" fill="#fff"/>
      <path id="Tracé_7" data-name="Tracé 7" d="M35.226,28.452a3.226,3.226,0,1,1,6.452,0v3.226H44.9V28.452a6.452,6.452,0,1,0-12.9,0v3.226h3.226Z" transform="translate(19.613 13.484)" fill="#fff"/>
      <path id="Tracé_8" data-name="Tracé 8" d="M95.161,62.9H80.337a17.724,17.724,0,0,0,.308-3.226V38.71A38.755,38.755,0,0,0,41.935,0H38.71A38.755,38.755,0,0,0,0,38.71V59.677A17.763,17.763,0,0,0,17.742,77.419h10.5a9.567,9.567,0,0,0,.371,13.156l.415.415V100H95.161A4.845,4.845,0,0,0,100,95.161V67.742A4.845,4.845,0,0,0,95.161,62.9Zm0,3.226a1.613,1.613,0,0,1,0,3.226H77.755a17.6,17.6,0,0,0,1.658-3.226ZM65.881,85.861a3.23,3.23,0,0,0-2.977-1.99H57.935a11.265,11.265,0,0,0-3.276-6.452H62.9a17.628,17.628,0,0,0,9.677-2.89v9.342h-2.25a4.817,4.817,0,0,0-2.684.813ZM30.9,88.3a6.371,6.371,0,1,1,9.01-9.01l6.2,6.2-2.085,2.085L46.3,89.85,49.055,87.1H62.9v9.677H39.377Zm-.253-14.1A17.763,17.763,0,0,1,12.9,56.452V54.808a15.883,15.883,0,0,0,13.658,2.739,9.625,9.625,0,0,0-.755,3.744v3.226H54.839V61.29a9.625,9.625,0,0,0-.755-3.744,15.883,15.883,0,0,0,13.658-2.739v1.644A17.763,17.763,0,0,1,50,74.194Zm32.258,0H61.123a20.956,20.956,0,0,0,9.845-17.742V51.613h1.613a7.981,7.981,0,0,0,4.839-1.655v9.719A14.532,14.532,0,0,1,62.9,74.194ZM49.055,83.871,42.6,77.419h4.171a8.08,8.08,0,0,1,7.9,6.452ZM73.9,38.916a4.813,4.813,0,0,1-1.05,9.444,15.918,15.918,0,0,0,1.05-9.444Zm-1.05-3.4a16.206,16.206,0,0,0-5.15-6.479h.042a9.685,9.685,0,0,1,9.518,7.974A7.991,7.991,0,0,0,72.85,35.511Zm-1.882,6.424a12.9,12.9,0,1,1-12.9-12.9A12.918,12.918,0,0,1,70.968,41.935ZM45.161,51.613H35.484l-.032,0a16.012,16.012,0,0,0,1.9-16.131h5.939a16.012,16.012,0,0,0,1.9,16.131Zm-12.9,4.123V61.29H29.032A6.431,6.431,0,0,1,32.258,55.735Zm3.226-.9H38.71V61.29H35.484Zm6.452,0h3.226V61.29H41.935Zm6.452.9a6.431,6.431,0,0,1,3.226,5.555H48.387Zm-3.2-23.477H35.453a16.221,16.221,0,0,0-3.235-3.226H48.429A16.272,16.272,0,0,0,45.192,32.258Zm-9.708,9.677a12.9,12.9,0,1,1-12.9-12.9A12.918,12.918,0,0,1,35.484,41.935ZM7.8,35.511a8,8,0,0,0-4.41,1.5A9.685,9.685,0,0,1,12.9,29.032h.042A16.192,16.192,0,0,0,7.8,35.511Zm-1.05,3.4A15.918,15.918,0,0,0,7.8,48.36a4.813,4.813,0,0,1-1.05-9.444ZM38.71,3.226h3.226A35.539,35.539,0,0,1,76,28.81a12.839,12.839,0,0,0-8.261-3H12.9a12.839,12.839,0,0,0-8.261,3A35.539,35.539,0,0,1,38.71,3.226ZM3.226,59.677V49.958a7.981,7.981,0,0,0,4.839,1.655H9.677v4.839a20.956,20.956,0,0,0,9.845,17.742H17.742A14.532,14.532,0,0,1,3.226,59.677ZM32.258,94.216l2.558,2.558H32.258Zm33.871,2.558v-7.2l3.308-2.2a1.6,1.6,0,0,1,.894-.271h3.863a1.613,1.613,0,0,1,1.613,1.613v6.452a1.613,1.613,0,0,1-1.613,1.613Zm29.032,0H78.735a4.784,4.784,0,0,0,.3-1.613V88.71a4.832,4.832,0,0,0-3.226-4.542V72.581H95.161a4.784,4.784,0,0,0,1.613-.3V95.161A1.613,1.613,0,0,1,95.161,96.774Z" fill="#fff"/>
      <path id="Tracé_9" data-name="Tracé 9" d="M57.452,47H54.226v3.226H51v3.226h3.226v11.29h3.226V53.452h3.226V50.226H57.452Z" transform="translate(31.258 28.806)" fill="#fff"/>
    </g>
  </g>
</svg>
