<svg xmlns="http://www.w3.org/2000/svg" xmlns:xlink="http://www.w3.org/1999/xlink" width="100" height="101" viewBox="0 0 100 101">
  <defs>
    <clipPath id="clip-dragon">
      <rect width="100" height="101"/>
    </clipPath>
  </defs>
  <g id="dragon" clip-path="url(#clip-dragon)">
    <g id="noun-dragon-4167373_1_" data-name="noun-dragon-4167373(1)">
      <g id="Groupe_1" data-name="Groupe 1">
        <path id="Tracé_1" data-name="Tracé 1" d="M50.855,16.419a4.855,4.855,0,1,0,4.855,4.855A4.861,4.861,0,0,0,50.855,16.419Zm0,6.473a1.618,1.618,0,1,1,1.618-1.618A1.621,1.621,0,0,1,50.855,22.892Z" transform="translate(28.167 10.054)" fill="#fff"/>
        <path id="Tracé_2" data-name="Tracé 2" d="M93.7,14.8l.713-.177A7.379,7.379,0,0,0,95.9.852L94.224,0l-.594,1.779a6.6,6.6,0,0,1-5.36,4.474l-1.192.169a9.838,9.838,0,0,0-6.232,3.542A21.515,21.515,0,0,0,69.921.779L68.353.192l-.529,1.587a4.168,4.168,0,0,1-4.768,2.768l-5.789-1.16.879,2.637a3.8,3.8,0,0,1-2.192,4.726l-7.708,3.084,4.535,1.3a36.579,36.579,0,0,1,4.9,1.792,20.48,20.48,0,0,0-3.3,2.687l-5.268-2.634-1.444,2.885,4.574,2.287a20.585,20.585,0,0,0-2.755,5.366l-3.934-.984-.782,3.129,3.921.981A19.552,19.552,0,0,0,48.5,36.16H45.161v3.226h3.9l.837,3.768c.2.889.368,1.785.531,2.684H45.161v3.226h5.785q.3,2.194.463,4.4a45.5,45.5,0,0,0-19.515-4.4c-1.39,0-2.769.074-4.14.2l6.077-8.779A27.305,27.305,0,0,0,38.71,24.869a17.6,17.6,0,0,0-2.36-8.8l2.869-.956L38.2,12.048l-3.8,1.266a17.858,17.858,0,0,0-4.515-3.756l2.1-3.148L29.3,4.621l-2.374,3.56a17.575,17.575,0,0,0-4.35-.971V3.9H19.355V7.256a11.2,11.2,0,0,0-5.135,2.132L12.431,7.6,10.15,9.881l1.789,1.789A11.2,11.2,0,0,0,9.806,16.8H6.452v3.226H9.84a8.042,8.042,0,0,0,14.739,2.615,5.7,5.7,0,0,1,1.227,3.532,5.759,5.759,0,0,1-2.127,4.49L8.808,42.75a23.832,23.832,0,0,0,4.111,39.687,12.125,12.125,0,0,0,12.1,11.785h1.413a6.415,6.415,0,0,0,5.587,3.226h3.463a3.229,3.229,0,0,0,3.226,3.226h9.677a3.229,3.229,0,0,0,3.226-3.226h3.011a25.787,25.787,0,0,0,9.2-1.706l.034.171a5.923,5.923,0,0,0,9.094,3.766l2.127-1.418a4.814,4.814,0,0,1,2.684-.813h2.885a3.229,3.229,0,0,0,3.226,3.226h9.677a3.229,3.229,0,0,0,3.226-3.226V95.835a8.065,8.065,0,0,0-7.9-8.048v-.008l-13.04-1.3a25.893,25.893,0,0,0-.86-31.218,4.822,4.822,0,0,0,1.55.258h3.437l1.173,3.226h2.106A10.326,10.326,0,0,0,93.55,48.426a4.814,4.814,0,0,0-.813-2.684l-2.415-3.619V29.906a10.088,10.088,0,0,0-3.169-7.327A8.683,8.683,0,0,1,93.7,14.8ZM95.787,4.771a4.126,4.126,0,0,1,.566,4.494L94.016,6.927A9.781,9.781,0,0,0,95.787,4.771Zm-7.06,4.674a9.9,9.9,0,0,0,2.524-.723l2.669,2.669c-.1.032-.19.074-.292.1l-.713.177a11.909,11.909,0,0,0-2.735,1.1L87.116,9.7c.14-.029.276-.069.419-.089ZM22.1,72.615l-.3-.118L25.3,67.235l-9.982-1.663,1.952-3.9.342-.115A55.145,55.145,0,0,1,48.3,60.379l10.194,2.548A31.5,31.5,0,0,1,22.1,72.615ZM53.776,58.426l-4.7-1.176A58.4,58.4,0,0,0,16.594,58.5l-.416.139L12.21,57.048l2.513-1.115a42.16,42.16,0,0,1,39.053,2.492ZM13.321,78.976a20.609,20.609,0,0,1-2.479-33.723L25.713,33.171a8.984,8.984,0,0,0,.011-13.937,8.036,8.036,0,0,0,.082-.816,4.839,4.839,0,1,0-9.677,0v1.613h3.226V18.418a1.613,1.613,0,1,1,3.226,0,4.839,4.839,0,0,1-9.677,0,8.074,8.074,0,0,1,8.065-8.065A14.534,14.534,0,0,1,35.484,24.869a24.1,24.1,0,0,1-4.3,13.777L23.41,49.871a45.349,45.349,0,0,0-10,3.115l-9.5,4.221L13.9,61.2l-3.418,6.837L19.855,69.6l-1.676,2.515A12.067,12.067,0,0,0,13.321,78.976ZM35.647,94.224H32.023a3.211,3.211,0,0,1-2.885-1.782L28.416,91H25.023a8.88,8.88,0,0,1-5.435-15.913l1.311.524A34.757,34.757,0,0,0,26.1,77.2a12.458,12.458,0,0,1,2.49,5.3l.3,1.516-2.616,2.616,2.281,2.281,2.492-2.492,7.769,2.913A8.074,8.074,0,0,0,35.647,94.224Zm9.515,3.226V94.224H41.935V97.45H38.71V95.837a4.839,4.839,0,0,1,9.677,0l0,1.613Zm6.289-3.226a7.983,7.983,0,0,0-1.534-3.277A24.9,24.9,0,0,0,59.2,88.808l2.479,1.984a4.819,4.819,0,0,1,1.373,1.792,22.6,22.6,0,0,1-8.423,1.642H51.45Zm26.31,0a8.022,8.022,0,0,0-4.473,1.355L71.16,97a2.668,2.668,0,0,1-1.5.453,2.7,2.7,0,0,1-2.645-2.169l-.46-2.3a8.085,8.085,0,0,0-2.869-4.716L59.915,85.25a4.922,4.922,0,0,1,3.073-8.768,5.271,5.271,0,0,1,4.913,3.4l2.923,7.794-1.3,2.6,2.885,1.444,1.116-2.231,9.255.926a8.023,8.023,0,0,0-1.974,3.81H77.76ZM74.158,66.8h2.776a22.875,22.875,0,0,1,.41,3.226H73.823A25.308,25.308,0,0,0,74.158,66.8Zm-.068-3.226A25.218,25.218,0,0,0,72.9,57.824l-.008-.023A22.78,22.78,0,0,1,76,63.579ZM71.761,51.848,71.6,51.7a11.281,11.281,0,0,1-3.827-7.974l1.818,1.455,2.244,6.732C71.806,51.9,71.785,51.871,71.761,51.848Zm1.294,21.408h4.279a22.718,22.718,0,0,1-4.187,11.432l-2.226-5.935c-.04-.108-.1-.2-.145-.311A25.048,25.048,0,0,0,73.055,73.256ZM93.548,95.837l0,1.613H90.323V94.224H87.1V97.45H83.871V95.837a4.839,4.839,0,0,1,9.677,0Zm-3.5-48.3a1.6,1.6,0,0,1,.271.894,7.1,7.1,0,0,1-6.935,7.087l-1.129-3.106v-.118h-.044L77.323,38.834l-3.032,1.1,4.492,12.352H76.518a1.611,1.611,0,0,1-1.531-1.1l-2.64-7.923-4.213-3.371a9.593,9.593,0,0,1-3.618-7.527,9.691,9.691,0,0,1,1.016-4.31l.426-.85L63.074,25.76l-.426.85a12.929,12.929,0,0,0-1.358,5.755,12.772,12.772,0,0,0,3.226,8.494v2.35A14.5,14.5,0,0,0,67.6,52.134l2.237,6.711A21.927,21.927,0,0,1,68.7,75.494a8.494,8.494,0,0,0-5.715-2.237,8.149,8.149,0,0,0-6.421,13.166,21.785,21.785,0,0,1-7.577,1.35H43.84L32.05,83.352l-.3-1.484a15.641,15.641,0,0,0-1.368-3.944c1.131.111,2.268.171,3.413.171a34.511,34.511,0,0,0,27.421-13.41L63.5,61.755,61.86,60.323a45.458,45.458,0,0,0-7.119-5.1,75.209,75.209,0,0,0-1.69-12.769l-1.027-4.618a17.517,17.517,0,0,1-.41-3.752,17.311,17.311,0,0,1,9.469-15.406A36.422,36.422,0,0,1,70.8,26.858l.547.656,2.477-2.065-.547-.656a39.528,39.528,0,0,0-15.481-11.34,7.027,7.027,0,0,0,3.69-5.2A31.947,31.947,0,0,1,75.939,23.892L78.9,22.621A35.165,35.165,0,0,0,66.315,7.413a7.391,7.391,0,0,0,3.831-3.04,18.368,18.368,0,0,1,10.5,16.535v2l1.221.3a6.9,6.9,0,0,1,5.231,6.7V43.1ZM83.866,20.465a21.3,21.3,0,0,0-1.39-7.094,6.616,6.616,0,0,1,1.6-2.144l3.45,3.45A11.879,11.879,0,0,0,84.2,20.624C84.085,20.576,83.982,20.51,83.866,20.465Z" fill="#fff"/>
        <rect id="Rectangle_1" data-name="Rectangle 1" width="12.946" height="3.237" transform="translate(29.018 61.959)" fill="#fff"/>
        <rect id="Rectangle_2" data-name="Rectangle 2" width="6.473" height="3.237" transform="translate(32.251 68.41)" fill="#fff"/>
      </g>
    </g>
  </g>
</svg>
