<svg xmlns="http://www.w3.org/2000/svg" xmlns:xlink="http://www.w3.org/1999/xlink" width="100" height="101" viewBox="0 0 100 101">
  <defs>
    <clipPath id="clip-elf">
      <rect width="100" height="101"/>
    </clipPath>
  </defs>
  <g id="elf" clip-path="url(#clip-elf)">
    <g id="noun-trumpet-4277515" transform="translate(0 0.429)">
      <g id="Groupe_6" data-name="Groupe 6">
        <path id="Tracé_17" data-name="Tracé 17" d="M24.9,28H21.677a3.226,3.226,0,1,1-6.452,0H12a6.452,6.452,0,1,0,12.9,0Z" transform="translate(7.355 17.161)" fill="#fff"/>
        <path id="Tracé_18" data-name="Tracé 18" d="M28.452,34.452A6.458,6.458,0,0,0,34.9,28H31.677a3.226,3.226,0,1,1-6.452,0H22A6.458,6.458,0,0,0,28.452,34.452Z" transform="translate(13.484 17.161)" fill="#fff"/>
        <path id="Tracé_19" data-name="Tracé 19" d="M96.774,41.935H93.548a3.229,3.229,0,0,0-3.226,3.226v4.208a25.2,25.2,0,0,1-19.048,8.7H66.087a7.969,7.969,0,0,0,1.581-4.116A14.437,14.437,0,0,0,87.1,40.323a8.074,8.074,0,0,0-8.065-8.065,7.981,7.981,0,0,0-4.839,1.655V24.3A24.289,24.289,0,0,0,39.526,2.329a8.047,8.047,0,0,0-13.565,4.2A24.652,24.652,0,0,0,3.535,25.806h-.31A3.229,3.229,0,0,0,0,29.032v3.226a3.221,3.221,0,0,0,2.163,3.031A20.5,20.5,0,0,0,.613,49.427l.121.481A7.987,7.987,0,0,0,0,53.226,8.074,8.074,0,0,0,8.065,61.29H9.677a16.137,16.137,0,0,0,15.515,16.1,9.8,9.8,0,0,0-2.611,6.656V100H43.548v-.027c.182.01.365.027.548.027a10.691,10.691,0,0,0,5.8-1.7l4.124-2.652,10.5,4.5,12.9-5.531V68.523a25.161,25.161,0,0,1,12.9,7.915v4.208a3.229,3.229,0,0,0,3.226,3.226h3.226A3.229,3.229,0,0,0,100,80.645V45.161A3.229,3.229,0,0,0,96.774,41.935ZM51.613,33.871a4.845,4.845,0,0,1-4.839,4.839H20.968a4.832,4.832,0,0,1-4.542-3.226H48.387V32.258H46.774a1.613,1.613,0,1,1,0-3.226A4.845,4.845,0,0,1,51.613,33.871ZM13.369,36.465a7.3,7.3,0,0,0-3.692,6.323v2.374H8.065a8,8,0,0,0-4.685,1.527,17.443,17.443,0,0,1-.153-2.245,17.243,17.243,0,0,1,2.51-8.96h7.331A7.76,7.76,0,0,0,13.369,36.465ZM12.9,29.032v3.226H9.677V29.032Zm51.613,3.226H61.29V29.032h3.226ZM51.548,25.806A20.931,20.931,0,0,0,42.106,9.777,21.462,21.462,0,0,1,60.913,25.806ZM32.11,10.277l1.761-.529,1.761.529A17.769,17.769,0,0,1,48.311,25.806H19.431A17.771,17.771,0,0,1,32.11,10.277ZM16.129,32.258V29.032h3.226v3.226Zm6.452-3.226h3.226v3.226H22.581Zm6.452,0h3.226v3.226H29.032Zm6.452,0h6.748a4.531,4.531,0,0,0,0,3.226H35.484Zm22.581,0v3.226H54.676a8.008,8.008,0,0,0-1.49-3.226Zm-3.389,6.452h7.331a17.241,17.241,0,0,1,2.51,8.96,17.422,17.422,0,0,1-.153,2.245,8,8,0,0,0-4.685-1.527H58.065V41.187a5.71,5.71,0,0,0-3.523-5.266C54.581,35.773,54.645,35.635,54.676,35.484ZM58.065,55.7l4.121-2.747L60.4,50.271l-2.332,1.555V48.387h1.613a4.839,4.839,0,0,1,0,9.677H58.065Zm12.9-31.4V40.323a4.839,4.839,0,0,0,9.677,0V38.71H77.419v1.613a1.613,1.613,0,1,1-3.226,0,4.839,4.839,0,1,1,9.677,0A11.255,11.255,0,0,1,67.139,50.19c-.04-.1-.087-.187-.131-.282l.121-.481a20.491,20.491,0,0,0-1.55-14.137,3.225,3.225,0,0,0,2.163-3.032V29.032a3.229,3.229,0,0,0-3.226-3.226h-.31A24.652,24.652,0,0,0,41.781,6.529a7.983,7.983,0,0,0-.432-1.448A20.992,20.992,0,0,1,70.968,24.3ZM33.871,3.226a4.832,4.832,0,0,1,4.542,3.226H29.331A4.828,4.828,0,0,1,33.871,3.226ZM25.635,9.777a20.934,20.934,0,0,0-9.442,16.029H6.829A21.462,21.462,0,0,1,25.635,9.777ZM3.226,29.032H6.452v3.226H3.226ZM8.065,58.065a4.839,4.839,0,0,1,0-9.677H9.677v3.439L7.347,50.271,5.558,52.955,9.677,55.7v2.363ZM12.9,61.29v-18.5A4.077,4.077,0,0,1,15,39.239a8.01,8.01,0,0,0,5.973,2.7H46.774a8.025,8.025,0,0,0,6.311-3.1,2.473,2.473,0,0,1,1.753,2.356V58.065H45.161a3.229,3.229,0,0,0-3.226-3.226H38.71a3.221,3.221,0,0,0-2.721,1.51,5.585,5.585,0,0,0-3.731-1.51c-3.558,0-6.452,3.618-6.452,8.065s2.894,8.065,6.452,8.065a5.585,5.585,0,0,0,3.731-1.51,3.221,3.221,0,0,0,2.721,1.51h3.226a3.229,3.229,0,0,0,3.226-3.226h6.452V69.8a12.84,12.84,0,0,1-9.677,4.4H25.806A12.918,12.918,0,0,1,12.9,61.29ZM38.71,58.065h3.226l0,9.677H38.71Zm-6.452,9.677c-1.748,0-3.226-2.216-3.226-4.839s1.477-4.839,3.226-4.839,3.226,2.216,3.226,4.839S34.006,67.742,32.258,67.742Zm35.484,8.065a13.108,13.108,0,0,1-2.184,7.232l-4.268-3.2V75.806A1.615,1.615,0,0,1,62.9,74.194h3.226A1.615,1.615,0,0,1,67.742,75.806ZM43.866,86.747,42.6,85.484l1.363-1.363-3.087-5.145a9.771,9.771,0,0,0-1.187-1.556h2.244a16.045,16.045,0,0,0,9.677-3.24v8.7ZM54.839,74.194h3.523a4.784,4.784,0,0,0-.3,1.613v3.842l-3.226,1.613ZM32.432,77.419a6.655,6.655,0,0,1,5.681,3.216l1.79,2.985L37.1,86.429l-3.7-3.7-2.281,2.281,3.7,3.7-2.808,2.808-2.984-1.79a6.626,6.626,0,0,1,3.408-12.308ZM25.806,91.3a9.686,9.686,0,0,0,1.556,1.189l5.145,3.085,1.363-1.363,2.558,2.558H25.806Zm22.347,4.279a7.5,7.5,0,0,1-9.36-1.006l-2.642-2.642,4.171-4.171,1.613,1.613v4.171h3.226V89.706l14.347-7.173L63.456,85.5A13.29,13.29,0,0,1,61.7,86.876Zm26.04-3.1-9.677,4.147L57.3,93.539l6.147-3.95a16.317,16.317,0,0,0,7.524-13.782,4.784,4.784,0,0,0-.3-1.613h3.523Zm0-21.518H54.839V67.742H71.274a25.42,25.42,0,0,1,2.919.174Zm-2.919-6.452H45.161V61.29H71.274a28.4,28.4,0,0,0,19.048-7.342V71.86A28.391,28.391,0,0,0,71.274,64.516ZM93.548,80.645V45.161h3.226l0,35.484Z" fill="#fff"/>
      </g>
    </g>
  </g>
</svg>
