<svg xmlns="http://www.w3.org/2000/svg" xmlns:xlink="http://www.w3.org/1999/xlink" width="100" height="101" viewBox="0 0 100 101">
  <defs>
    <clipPath id="clip-human">
      <rect width="100" height="101"/>
    </clipPath>
  </defs>
  <g id="human" clip-path="url(#clip-human)">
    <g id="noun-wooden-mug-4277516" transform="translate(0 1)">
      <g id="Groupe_7" data-name="Groupe 7" transform="translate(0)">
        <path id="Tracé_20" data-name="Tracé 20" d="M96.774,64.516a6.444,6.444,0,0,0-3.285-5.6A4.85,4.85,0,0,0,89.471,54.9a6.438,6.438,0,0,0-12.052,3.166,6.244,6.244,0,0,0,.058.852,6.449,6.449,0,0,0-3.284,5.6,3.229,3.229,0,0,0-3.226,3.226v3.226a3.229,3.229,0,0,0,3.226,3.226v3.226H69.355a4.789,4.789,0,0,0-2.91,1,3.878,3.878,0,0,0-2.6-1A3.926,3.926,0,0,0,61.1,78.56L59.01,80.645h-7.4V77.419a16.11,16.11,0,0,0-6.847-13.168,16.144,16.144,0,0,0,13.3-15.865h1.613a8.061,8.061,0,0,0,6.687-12.568l1.032-6.19A25.452,25.452,0,0,0,42.3,0H19.976A14.371,14.371,0,0,0,6.8,8.519,13.207,13.207,0,0,0,0,20.116,67.353,67.353,0,0,0,.518,28.44l.915,7.313A8.05,8.05,0,0,0,8.065,48.387H9.677a16.141,16.141,0,0,0,14.04,15.977,12.528,12.528,0,0,0-1.137,17.894v11.29H66.129a4.756,4.756,0,0,0,1.635-.3,4.79,4.79,0,0,0,1.59.3h4.839v1.613A4.845,4.845,0,0,0,79.032,100h12.9a4.845,4.845,0,0,0,4.839-4.839V74.194A3.229,3.229,0,0,0,100,70.968V67.742A3.229,3.229,0,0,0,96.774,64.516Zm-16.966-3.1,1.752-.474-.677-1.684a3.213,3.213,0,1,1,6.016-2.25l.566,1.156,1.245-.1a1.6,1.6,0,0,1,1.611,1.576l-.134,1.434,1.189.415a3.217,3.217,0,0,1,2.173,3.027H77.419A3.224,3.224,0,0,1,79.808,61.419ZM77.419,74.194h3.226v3.226H77.419ZM87.1,93.548v3.226H83.871V93.548Zm-9.677-3.226V80.645H93.548v9.677Zm6.452-12.9V74.194H87.1v3.226Zm-42.742-.139,4.977,4.977-2.085,2.085L46.3,86.624l2.753-2.753h9.01v6.452H42.6l-7.258-7.258Zm7.258.139v2.558L43.41,75l2.1-2.1-2.327-4.656a12.721,12.721,0,0,0-1.273-2A12.906,12.906,0,0,1,48.387,77.419Zm11.29-32.258H58.065V42.8l4.121-2.747L60.4,37.368l-2.332,1.555V35.484h1.613a4.839,4.839,0,0,1,0,9.677Zm-51.613,0a4.839,4.839,0,1,1,0-9.677H9.677v3.439L7.347,37.368,5.558,40.052,9.677,42.8v2.363ZM9.677,30.645v1.613H8.065a7.947,7.947,0,0,0-3.7.942l-.645-5.16a64.066,64.066,0,0,1-.494-7.924,10,10,0,0,1,5.56-9l.548-.274.227-.571a11.165,11.165,0,0,1,10.415-7.05H42.3A22.216,22.216,0,0,1,64.213,29.1l-.7,4.176a7.953,7.953,0,0,0-3.84-1.018H58.065V20.968A8.074,8.074,0,0,0,50,12.9H32.258v3.226H50a4.845,4.845,0,0,1,4.839,4.839v4.839H51.613V19.355H48.387v6.452H45.161V19.355H41.935v6.452H38.71V19.355H35.484v6.452H29.032V22.581a6.452,6.452,0,0,0-12.9,0v.163A8.077,8.077,0,0,0,9.677,30.645ZM25.806,61.29a12.918,12.918,0,0,1-12.9-12.9V30.645a4.845,4.845,0,0,1,4.839-4.839h1.613V22.581a3.226,3.226,0,0,1,6.452,0v6.452H54.839V48.387a12.918,12.918,0,0,1-12.9,12.9Zm6.126,3.226A9.3,9.3,0,0,1,40.3,69.685l1.289,2.577-.456.456-4.5-4.5L34.344,70.5l4.5,4.5L37.1,76.752l-2.085-2.085-2.281,2.281,2.085,2.085-1.752,1.752-4.5-4.5L26.279,78.56l4.5,4.5-.456.456L27.75,82.232a9.352,9.352,0,0,1,4.182-17.716ZM25.806,84.823c.169.1.326.208.5.3l4.656,2.327,2.1-2.1,4.976,4.979H25.806Zm35.484,5.5v-7.4l2.084-2.084a.692.692,0,0,1,1.142.471v2.558h1.613a1.615,1.615,0,0,1,1.613,1.613V88.71a1.615,1.615,0,0,1-1.613,1.613Zm9.381,0a4.784,4.784,0,0,0,.3-1.613V85.484a4.836,4.836,0,0,0-2.76-4.356,1.609,1.609,0,0,1,1.147-.482h4.839v9.677Zm6.748,4.839V93.548h3.226v3.226H79.032A1.615,1.615,0,0,1,77.419,95.161Zm14.516,1.613H90.323V93.548h3.226v1.613A1.615,1.615,0,0,1,91.935,96.774Zm1.613-19.355H90.323V74.194h3.226ZM74.194,70.968V67.742H96.774l0,3.226Z" fill="#fff"/>
        <path id="Tracé_21" data-name="Tracé 21" d="M33.192,35.677h3.389V34.065A8.074,8.074,0,0,0,28.516,26H22.065A8.074,8.074,0,0,0,14,34.065v1.613h3.389a8.065,8.065,0,0,0,15.8,0Zm-9.515-6.452H26.9v3.226H23.677Zm9.4,3.226h-2.95V29.51A4.863,4.863,0,0,1,33.079,32.452ZM20.452,29.51v2.942H17.5A4.863,4.863,0,0,1,20.452,29.51ZM25.29,38.9a4.832,4.832,0,0,1-4.542-3.226h9.082A4.828,4.828,0,0,1,25.29,38.9Z" transform="translate(8.581 15.935)" fill="#fff"/>
        <path id="Tracé_22" data-name="Tracé 22" d="M19.677,26.452H22.9a6.452,6.452,0,1,0-12.9,0h3.226a3.226,3.226,0,1,1,6.452,0Z" transform="translate(6.129 12.258)" fill="#fff"/>
        <path id="Tracé_23" data-name="Tracé 23" d="M30.452,23.226a3.229,3.229,0,0,1,3.226,3.226H36.9a6.452,6.452,0,1,0-12.9,0h3.226A3.229,3.229,0,0,1,30.452,23.226Z" transform="translate(14.71 12.258)" fill="#fff"/>
      </g>
    </g>
  </g>
</svg>
