<svg xmlns="http://www.w3.org/2000/svg" xmlns:xlink="http://www.w3.org/1999/xlink" width="100" height="101" viewBox="0 0 100 101">
  <defs>
    <clipPath id="clip-ranger">
      <rect width="100" height="101"/>
    </clipPath>
  </defs>
  <g id="ranger" clip-path="url(#clip-ranger)">
    <g id="Groupe_5" data-name="Groupe 5">
      <path id="Tracé_1" data-name="Tracé 1" d="M19.987,31.589v-1.6A7.993,7.993,0,0,0,4,29.99v1.6Zm-7.993-6.395a4.805,4.805,0,0,1,4.523,3.2H7.471A4.805,4.805,0,0,1,11.993,25.194Z" transform="translate(2.395 13.169)" fill="#fff"/>
      <path id="Tracé_2" data-name="Tracé 2" d="M9.2,16.392v3.2h3.2v-3.2h3.2v-3.2h-3.2V10H9.2v3.2H6v3.2Z" transform="translate(3.592 5.985)" fill="#fff"/>
      <rect id="Rectangle_5" data-name="Rectangle 5" width="3" height="4" transform="translate(7 54)" fill="#fff"/>
      <rect id="Rectangle_6" data-name="Rectangle 6" width="3" height="4" transform="translate(13 54)" fill="#fff"/>
      <path id="Tracé_3" data-name="Tracé 3" d="M39.987,29.99A7.993,7.993,0,1,0,24,29.99v1.6H39.987Zm-12.516-1.6a4.8,4.8,0,0,1,9.045,0Z" transform="translate(14.368 13.169)" fill="#fff"/>
      <path id="Tracé_4" data-name="Tracé 4" d="M32.395,10H29.2v3.2H26v3.2h3.2v3.2h3.2v-3.2h3.2v-3.2h-3.2Z" transform="translate(15.565 5.985)" fill="#fff"/>
      <rect id="Rectangle_7" data-name="Rectangle 7" width="4" height="3" transform="translate(28 7)" fill="#fff"/>
      <rect id="Rectangle_8" data-name="Rectangle 8" width="4" height="3" transform="translate(28 13)" fill="#fff"/>
      <path id="Tracé_5" data-name="Tracé 5" d="M77.411,90.467l-.675-.337V77.7L100,55.81l-2.8-2.1a44.772,44.772,0,0,0-20.463-8.47v-1.6l6.754-10.129-1.639-2.184a14.344,14.344,0,0,0-21.328-1.848A33.52,33.52,0,0,0,37.1,1.022a22.651,22.651,0,0,0-13.451,0A33.554,33.554,0,0,0,0,33.188V70.337H25.145a10.14,10.14,0,0,0-2.166,3.536l-3.8,3.8L13.92,72.4l-2.261,2.261,5.264,5.264-2.535,2.535L9.124,77.2,6.863,79.46l5.264,5.264-3.2,3.2L20.121,99.113H51.157V92.139a90.364,90.364,0,0,0,10.014.579h0a4.5,4.5,0,0,0-.427,1.83,4.567,4.567,0,0,0,4.563,4.563H75.369a4.563,4.563,0,0,0,2.042-8.644ZM67.144,80.712l3.2,3.009,3.2-3.009v8.807H67.144ZM41.121,80.1,44,87.789q-3.592-.727-7.125-1.751Zm3.256-.427,2.778,1.191a20.56,20.56,0,0,0-1.25,2.886ZM42.8,75.523,42,73.505a10.1,10.1,0,0,0-2.049-3.169H56.118L62.981,76.8a4.589,4.589,0,0,0-.633-.064H57.277a4.767,4.767,0,0,0-3.391,1.405l-1.5,1.5ZM35.171,31.969H57.5c.016.406.05.809.05,1.22V46.648c-1.289.385-2.563.809-3.811,1.308H35.171ZM73.539,76.322l-3.2,3.009-3.2-3.009V44.758h6.395ZM63.947,45.241q-1.611.233-3.2.58V38.844l3.2,4.8Zm0,3.229v3.263a36.616,36.616,0,0,0-14.831,6.222l-.846.6-2.625-2.472A41.572,41.572,0,0,1,63.947,48.47ZM50.974,60.554a33.437,33.437,0,0,1,12.973-5.581V73.312l-13.3-12.522Zm25.763-5.581a33.485,33.485,0,0,1,12.973,5.581l.331.237-13.3,12.522Zm18.3,1.113-2.625,2.472-.846-.6a36.657,36.657,0,0,0-14.831-6.222V48.468A41.617,41.617,0,0,1,95.038,56.086Zm-24.7-27.315A11.25,11.25,0,0,1,79.3,33.248l.28.374-5.293,7.939H66.4l-5.293-7.939.28-.372A11.242,11.242,0,0,1,70.341,28.771Zm-13.122,0H35.171v-4.8a14.466,14.466,0,0,1,11.586-14.1A30.3,30.3,0,0,1,57.22,28.771ZM24.6,4.073a19.455,19.455,0,0,1,11.547,0A30.8,30.8,0,0,1,43.476,7.49a17.708,17.708,0,0,0-11.5,16.485V57.547h1.469l-3.068,3.835-3.068-3.835h1.469V23.975a17.707,17.707,0,0,0-11.5-16.484A30.633,30.633,0,0,1,24.6,4.073Zm.977,43.882H3.2V33.188c0-.411.034-.814.05-1.22H25.579ZM13.993,9.875a14.464,14.464,0,0,1,11.586,14.1v4.8H3.53A30.3,30.3,0,0,1,13.993,9.875ZM3.2,51.153H25.579v3.2H20.653L30.375,66.5,40.1,54.348H35.171v-3.2H47.335a44.433,44.433,0,0,0-3.851,2.559l-2.8,2.1,12.038,11.33H3.2ZM39.028,74.691l.729,1.821-6.093,8.529q-1.832-.614-3.642-1.306a6.93,6.93,0,0,1,2.571-13.4A6.9,6.9,0,0,1,39.028,74.691ZM19.184,89.521v4.134L15.05,89.521Zm-4.134-3.2,4.134-4.134v4.134Zm7.332,3.2h3.2v6.395h-3.2Zm3.2-3.2h-3.2V78.992l.133-.133A10.21,10.21,0,0,0,25.579,84.6ZM47.96,95.915H28.776v-9.24c.034.013.062.034.1.046A89.728,89.728,0,0,0,47.96,91.733Zm.15-7.4a17.4,17.4,0,0,1,2.022-6.377l2.99,1.281L56.148,80.4a1.607,1.607,0,0,1,1.13-.468h5.069a1.6,1.6,0,0,1,1.6,1.6V87.92a1.6,1.6,0,0,1-1.6,1.6H61.172A86.705,86.705,0,0,1,48.11,88.518Zm27.261,7.4H65.314a1.365,1.365,0,0,1-.609-2.587l1.221-.611h8.836l1.221.611a1.366,1.366,0,0,1-.612,2.587Z" transform="translate(0 0)" fill="#fff"/>
    </g>
  </g>
</svg>
