<svg xmlns="http://www.w3.org/2000/svg" xmlns:xlink="http://www.w3.org/1999/xlink" width="100" height="101" viewBox="0 0 100 101">
  <defs>
    <clipPath id="clip-wizard">
      <rect width="100" height="101"/>
    </clipPath>
  </defs>
  <g id="wizard" clip-path="url(#clip-wizard)">
    <g id="Groupe_5" data-name="Groupe 5" transform="translate(0 1)">
      <path id="Tracé_14" data-name="Tracé 14" d="M24.839,22a4.839,4.839,0,1,0,4.839,4.839A4.845,4.845,0,0,0,24.839,22Zm0,6.452a1.613,1.613,0,1,1,1.613-1.613A1.615,1.615,0,0,1,24.839,28.452Z" transform="translate(12.258 13.484)" fill="#fff"/>
      <path id="Tracé_15" data-name="Tracé 15" d="M36.839,22a4.839,4.839,0,1,0,4.839,4.839A4.845,4.845,0,0,0,36.839,22Zm0,6.452a1.613,1.613,0,1,1,1.613-1.613A1.615,1.615,0,0,1,36.839,28.452Z" transform="translate(19.613 13.484)" fill="#fff"/>
      <rect id="Rectangle_27" data-name="Rectangle 27" width="10" height="2" transform="translate(42 62)" fill="#fff"/>
      <path id="Tracé_16" data-name="Tracé 16" d="M85.484,41.935c-.294,0-.581.023-.868.044a14.411,14.411,0,0,0,2.169-5.123c4.527-1.737,6.763-3.771,6.763-6.211,0-4.131-6.958-6.95-16.265-8.737A24.107,24.107,0,0,0,53.226,0H43.808A43.819,43.819,0,0,0,3.873,25.811C1.44,27.171,0,28.773,0,30.645a4.289,4.289,0,0,0,1.229,2.9A43.621,43.621,0,0,0,1.848,56.4l5.639,18.8a8.058,8.058,0,1,0,6.3-.563,49.419,49.419,0,0,1,2.6-9.489,11.1,11.1,0,0,0,2.585,1.8l.4.2a10.912,10.912,0,0,0,6.048,9.476l2.31,1.155,1.59-1.59a10.9,10.9,0,0,0,2.931,2.932V100H74.2a3.229,3.229,0,0,0,3.226-3.226V90.323a6.385,6.385,0,0,0,3.226-.9V100h9.677V71.348a1.607,1.607,0,0,1,.892-1.444l.731-.366a14.571,14.571,0,0,0-6.463-27.6Zm-8.4,17.424a7.794,7.794,0,0,1-3.335,4.334,10.915,10.915,0,0,0-2.773-4.674L70.76,58.8a14.467,14.467,0,0,0,.208-2.35V48.387h1.613a14.474,14.474,0,0,0,2.855-.285,11.208,11.208,0,0,0-1.242,5.124A8.017,8.017,0,0,0,77.084,59.36ZM65.3,74.194a10.469,10.469,0,0,0,.515-6.663,14.567,14.567,0,0,0,3.84-5.071,7.762,7.762,0,0,1-2.973,11.269l-.929.465Zm-.779-9.856v-4.66a11.3,11.3,0,0,0-11.29-11.29H48.387V38.71H45.161v9.677H40.323a11.3,11.3,0,0,0-11.29,11.29v4.66a11.25,11.25,0,0,1-3.226-7.885V37.1a4.845,4.845,0,0,1,4.839-4.839H62.9A4.845,4.845,0,0,1,67.742,37.1V56.452A11.244,11.244,0,0,1,64.516,64.337Zm-32.258-4.66a8.074,8.074,0,0,1,8.065-8.065h12.9a8.074,8.074,0,0,1,8.065,8.065v6.96a11.189,11.189,0,0,1-3.226.976V59.677a4.845,4.845,0,0,0-4.839-4.839h-12.9a4.845,4.845,0,0,0-4.839,4.839v7.935a11.189,11.189,0,0,1-3.226-.976Zm6.452,8.065V59.677a1.615,1.615,0,0,1,1.613-1.613h12.9a1.615,1.615,0,0,1,1.613,1.613v8.065Zm.127,3.226h3.1v6.481A11.773,11.773,0,0,1,38.837,70.968Zm6.324,0h3.226v8.9a11.726,11.726,0,0,1-1.613.685,11.928,11.928,0,0,1-1.613-.685Zm6.452,0h3.1a11.773,11.773,0,0,1-3.1,6.481Zm6.365-.082a14.39,14.39,0,0,0,4.879-1.427c.013.185.047.368.047.553a7.724,7.724,0,0,1-4.29,6.944l-.231.115-1.616-1.616A15,15,0,0,0,57.977,70.885Zm12.99-32.7,12.9-5.163v.845a11.3,11.3,0,0,1-11.29,11.29h-.09L78.25,41.7l-1.66-2.766-5.623,3.374ZM74,21.335c-3.939-.626-8.168-1.09-12.4-1.411l1.568-6.273L58.047,11.09l3.473-2.315L60.455,4.519A20.88,20.88,0,0,1,74,21.335ZM46.106,3.226,43.376,5.956l1.069,4.276L38.71,7.94l-5.735,2.294,1.069-4.276-1.2-1.2A40.489,40.489,0,0,1,43.808,3.226ZM29.4,5.871l1.074,1.076-2.156,8.627,10.4-4.16L49.1,15.573,46.947,6.945l3.721-3.719h2.558a21.232,21.232,0,0,1,3.663.334l.948,3.794-6.2,4.137,7.781,3.89L58.332,19.7c-4.016-.237-7.955-.348-11.558-.348a183.186,183.186,0,0,0-27.373,2,9.32,9.32,0,0,1,2.706-5.7l-2.281-2.281a12.525,12.525,0,0,0-3.681,8.556,63.01,63.01,0,0,0-7.66,1.924A40.6,40.6,0,0,1,29.4,5.871Zm17.377,16.71c28.592,0,43.548,5.25,43.548,8.065,0,.465-.758,1.444-3.226,2.589V28.263L70.611,34.856A8.048,8.048,0,0,0,62.9,29.032H30.645a8.048,8.048,0,0,0-7.708,5.824L6.452,28.263v4.971c-2.468-1.145-3.226-2.124-3.226-2.589C3.226,27.831,18.182,22.581,46.774,22.581ZM20.968,45.161a11.3,11.3,0,0,1-11.29-11.29v-.844l12.9,5.163v4.123L16.96,38.94,15.3,41.706l5.758,3.455Zm-4.839,37.1a4.839,4.839,0,1,1-4.839-4.839A4.845,4.845,0,0,1,16.129,82.258Zm-5.552-7.992h0l-5.639-18.8a40.54,40.54,0,0,1-.882-19.824,23.948,23.948,0,0,0,2.706,1.211,14.552,14.552,0,0,0,10.745,11.1L16.121,49.34a10.94,10.94,0,0,0-1.987,12.79A52.724,52.724,0,0,0,10.577,74.266ZM19.8,63.687a7.742,7.742,0,0,1-1.4-12.066l3.232-3.234h.945v8.065a14.467,14.467,0,0,0,.208,2.35l-.215.216A10.918,10.918,0,0,0,19.8,63.687Zm7.3,10.156-.231-.115A7.762,7.762,0,0,1,23.9,62.46a14.586,14.586,0,0,0,3.84,5.071,10.474,10.474,0,0,0,.116,5.558Zm3.544-3.832c0-.185.034-.368.047-.553a14.391,14.391,0,0,0,4.879,1.427,15,15,0,0,0,1.211,4.568l-1.616,1.616-.231-.115A7.722,7.722,0,0,1,30.645,70.011Zm4.839,14.121,3.452,10.353a8.051,8.051,0,0,0,1.2,2.289H35.484Zm38.71,12.642H46.585A4.832,4.832,0,0,1,42,93.465l-4.666-14,1.132-1.132a15.016,15.016,0,0,0,7.306,5.289l1.006.334,1.008-.335a15,15,0,0,0,7.3-5.287L57.747,81l2.31-1.155a10.987,10.987,0,0,0,3.181-2.421H74.194ZM71.3,74.194a10.9,10.9,0,0,0,2.869-7.055l.4-.2a11.017,11.017,0,0,0,5.373-6.026,7.956,7.956,0,0,0,2.313.379,8.076,8.076,0,0,0,7.856-6.242,4.8,4.8,0,0,1,.208,1.4,6.18,6.18,0,0,1-3.435,5.56l-.89.445a9.625,9.625,0,0,0-5.352,8.656v7.2a6.385,6.385,0,0,0-3.226-.9,3.229,3.229,0,0,0-3.226-3.226Zm6.119,12.9V80.645a3.226,3.226,0,1,1,0,6.452ZM90.5,66.655l-.731.366A4.811,4.811,0,0,0,87.1,71.348V96.774H83.871V71.113a6.412,6.412,0,0,1,3.566-5.769l.892-.445a9.4,9.4,0,0,0,5.219-8.447,8.074,8.074,0,0,0-8.065-8.065,4.845,4.845,0,0,0-4.839,4.839v1.613h3.226V53.226a1.613,1.613,0,0,1,3.226,0,4.839,4.839,0,1,1-9.677,0,8.074,8.074,0,0,1,8.065-8.065A11.345,11.345,0,0,1,90.5,66.655Z" fill="#fff"/>
    </g>
  </g>
</svg>
